<?xml version="1.0" encoding="UTF-8"?>
<!DOCTYPE svg PUBLIC "-//W3C//DTD SVG 1.1//EN" "http://www.w3.org/Graphics/SVG/1.1/DTD/svg11.dtd">
<svg xmlns="http://www.w3.org/2000/svg" version="1.1" width="800px" height="168px" style="shape-rendering:geometricPrecision; text-rendering:geometricPrecision; image-rendering:optimizeQuality; fill-rule:evenodd; clip-rule:evenodd" xmlns:xlink="http://www.w3.org/1999/xlink">
<g><path style="opacity:0.933" fill="#0572e6" d="M 624.5,7.5 C 641.895,6.39302 647.728,14.0597 642,30.5C 637.006,35.5767 631.173,37.0767 624.5,35C 616.897,30.605 614.397,24.105 617,15.5C 619.028,12.3078 621.528,9.64111 624.5,7.5 Z"/></g>
<g><path style="opacity:0.895" fill="#0572e6" d="M 575.5,16.5 C 584.888,14.4496 592.054,17.4496 597,25.5C 597.667,52.1667 597.667,78.8333 597,105.5C 586.014,129.079 567.514,138.579 541.5,134C 525.496,129.329 514.663,119.163 509,103.5C 501.86,76.6418 510.36,56.8084 534.5,44C 549.583,38.762 563.083,41.262 575,51.5C 575.5,39.8381 575.667,28.1714 575.5,16.5 Z M 546.5,64.5 C 560.293,61.8088 569.793,66.8088 575,79.5C 578.921,101.889 569.755,112.722 547.5,112C 536.22,108.144 530.553,100.144 530.5,88C 530.522,76.4311 535.856,68.5978 546.5,64.5 Z"/></g>
<g><path style="opacity:0.891" fill="#0572e6" d="M 37.5,43.5 C 66.4851,38.3831 85.9851,49.0497 96,75.5C 96.6667,84.5 96.6667,93.5 96,102.5C 87.5232,128.154 70.0232,138.487 43.5,133.5C 37.3657,132.019 32.5324,128.686 29,123.5C 28.8316,131.521 28.3316,139.521 27.5,147.5C 23.9568,157.433 16.9568,162.1 6.5,161.5C 6.33336,132.831 6.50002,104.165 7,75.5C 11.9816,59.8543 22.1483,49.1877 37.5,43.5 Z M 44.5,65.5 C 56.8844,63.011 66.2178,67.1776 72.5,78C 73.6116,84.7954 73.7783,91.6288 73,98.5C 65.9631,111.855 55.1298,116.022 40.5,111C 34.0666,106.576 30.0666,100.576 28.5,93C 28.5,90.3333 28.5,87.6667 28.5,85C 30.0263,75.3128 35.3596,68.8128 44.5,65.5 Z"/></g>
<g><path style="opacity:0.891" fill="#0572e6" d="M 333.5,43.5 C 362.485,38.3831 381.985,49.0497 392,75.5C 392.667,84.5 392.667,93.5 392,102.5C 383.523,128.154 366.023,138.487 339.5,133.5C 333.366,132.019 328.532,128.686 325,123.5C 324.832,131.521 324.332,139.521 323.5,147.5C 319.957,157.433 312.957,162.1 302.5,161.5C 302.333,132.831 302.5,104.165 303,75.5C 307.982,59.8543 318.148,49.1877 333.5,43.5 Z M 340.5,65.5 C 352.884,63.011 362.218,67.1776 368.5,78C 369.612,84.7954 369.778,91.6288 369,98.5C 361.963,111.855 351.13,116.022 336.5,111C 330.067,106.576 326.067,100.576 324.5,93C 324.5,90.3333 324.5,87.6667 324.5,85C 326.026,75.3128 331.36,68.8128 340.5,65.5 Z"/></g>
<g><path style="opacity:0.935" fill="#0572e6" d="M 137.5,44.5 C 150.835,42.5419 163.169,45.0419 174.5,52C 183.323,60.9619 187.323,71.7952 186.5,84.5C 179.167,84.5 171.833,84.5 164.5,84.5C 164.954,68.4556 157.287,61.9556 141.5,65C 136.162,67.0073 132.996,70.8406 132,76.5C 131.5,95.4971 131.333,114.497 131.5,133.5C 124.167,133.5 116.833,133.5 109.5,133.5C 109.07,112.127 109.57,90.7937 111,69.5C 114.866,55.7983 123.699,47.4649 137.5,44.5 Z"/></g>
<g><path style="opacity:0.944" fill="#0572e6" d="M 230.5,44.5 C 249.968,41.1573 266.468,46.4906 280,60.5C 292.667,79.8333 292.667,99.1667 280,118.5C 266.472,132.674 249.972,137.84 230.5,134C 211.654,129.821 200.154,118.321 196,99.5C 192.184,79.9337 198.017,64.1004 213.5,52C 218.872,48.6071 224.538,46.1071 230.5,44.5 Z M 234.5,64.5 C 258.14,62.9733 268.64,73.9733 266,97.5C 260.26,111.789 249.76,117.289 234.5,114C 223.023,109.882 217.356,101.715 217.5,89.5C 217.474,77.1981 223.141,68.8648 234.5,64.5 Z"/></g>
<g><path style="opacity:0.946" fill="#0572e6" d="M 438.5,44.5 C 477.709,40.7309 497.042,58.3976 496.5,97.5C 473.157,97.1669 449.824,97.5003 426.5,98.5C 432.706,112.435 443.373,117.602 458.5,114C 462.615,112.777 466.282,110.777 469.5,108C 477.5,107.333 485.5,107.333 493.5,108C 488.272,120.893 478.938,129.226 465.5,133C 442.044,139.184 423.211,132.684 409,113.5C 403.338,100.985 402.005,87.9847 405,74.5C 410.8,58.3731 421.966,48.3731 438.5,44.5 Z M 442.5,64.5 C 451.031,63.4299 459.031,64.9299 466.5,69C 469.444,71.722 471.777,74.8887 473.5,78.5C 457.844,79.6662 442.177,79.8329 426.5,79C 429.619,71.6249 434.953,66.7915 442.5,64.5 Z"/></g>
<g><path style="opacity:0.946" fill="#0572e6" d="M 692.5,44.5 C 708.208,41.9551 722.541,45.1218 735.5,54C 743.303,60.7688 748.136,69.2688 750,79.5C 750.5,97.4969 750.667,115.497 750.5,133.5C 743.833,133.5 737.167,133.5 730.5,133.5C 730.666,128.821 730.499,124.155 730,119.5C 723.187,130.573 713.187,135.573 700,134.5C 681.231,134.12 667.898,125.453 660,108.5C 657.594,98.9776 656.927,89.3109 658,79.5C 662.335,60.6657 673.835,48.999 692.5,44.5 Z M 696.5,64.5 C 716.087,61.7776 726.753,70.1109 728.5,89.5C 726.769,109.044 716.102,117.21 696.5,114C 685.023,109.882 679.356,101.715 679.5,89.5C 679.474,77.1981 685.141,68.8648 696.5,64.5 Z"/></g>
<g><path style="opacity:0.939" fill="#0572e6" d="M 619.5,46.5 C 626.833,46.5 634.167,46.5 641.5,46.5C 641.5,75.5 641.5,104.5 641.5,133.5C 634.167,133.5 626.833,133.5 619.5,133.5C 619.5,104.5 619.5,75.5 619.5,46.5 Z"/></g>
<g><path style="opacity:0.925" fill="#0572e6" d="M 775.5,106.5 C 790.94,104.769 797.107,111.436 794,126.5C 790.061,134.042 783.895,136.542 775.5,134C 767.095,129.461 764.595,122.628 768,113.5C 769.742,110.254 772.242,107.921 775.5,106.5 Z"/></g>
</svg>
